<?xml version="1.0" encoding="utf-8"?>
<!-- Generator: Adobe Illustrator 19.2.0, SVG Export Plug-In . SVG Version: 6.00 Build 0)  -->
<svg version="1.1"
	 id="svg2" xmlns:cc="http://creativecommons.org/ns#" xmlns:dc="http://purl.org/dc/elements/1.1/" xmlns:rdf="http://www.w3.org/1999/02/22-rdf-syntax-ns#" xmlns:svg="http://www.w3.org/2000/svg"
	 xmlns="http://www.w3.org/2000/svg" xmlns:xlink="http://www.w3.org/1999/xlink" x="0px" y="0px" viewBox="0 0 377.5 418.7"
	 style="enable-background:new 0 0 377.5 418.7;" xml:space="preserve">
<style type="text/css">
	.st0{stroke:#000000;}
	.st1{fill:#E94545;stroke:#800000;stroke-width:0.9595;}
	.st2{fill-opacity:0;stroke:#000000;}
	.st3{fill:#FFFFFF;stroke:#000000;}
	.st4{fill-opacity:0.9451;stroke:#000000;}
	.st5{fill:#E20909;stroke:#000000;stroke-width:3;stroke-linecap:round;stroke-linejoin:round;stroke-miterlimit:10;}
</style>
<g>
	<path id="path4153" class="st0" d="M375,93.7c-2.3-9.4-10.2-25.7-16.1-33.5c-9.8-12.8-26-23.6-42.3-28.1c-8.8-2.4-23.4-3-30.1-1.1
		c-11.9,3.3-18.9,12.6-18.7,24.8c0.1,8.9,3.3,15.4,12.2,24.7c8.5,9,10.1,12.8,8.8,21.9c-1.1,7.7-3.8,12.1-9.2,14.7
		c-5.1,2.5-12.3,2.9-15,2.2s-9.3-3.9-11.7-7.2c-3.2-4.3-4.1-12.9-2.8-25.4c1.6-14.8,1.6-36.7,0-44.1c-0.7-3.3-2.7-9.2-4.5-13
		c-11-23.9-46.7-35.7-76.7-25.3c-6,2.1-6.9,2.6-13.4,8.1c-1.8,1.5-3.6,2.8-4.1,2.8s-1.8,1.5-2.9,3.2c-2.3,3.6-4.5,4.7-4.5,2.3
		c0-1.9-3.9-9.8-5.3-10.7c-0.5-0.4-2.3,0.8-3.8,2.5c-8.2,9.2-13,15.1-12.7,15.6c0.2,0.3,1.8,3.7,3.8,7.5c3.9,7.9,4,9.3,2.5,36.6
		c-1,17.4-0.5,20.5,4,26.3c1.9,2.5,3.7,6.2,4.1,8.3c0.4,2.1,1.5,5.1,2.5,6.7c2.3,4.1,4.4,8.6,5.7,13.1c-0.3,0.3-4.3,1.2-8.9,2.1
		c-16,3-29.2,0-37.2-8.6c-7.3-7.8-9.1-17.4-5.6-28.7c0.6-1.8,3.7-5.5,7.5-8.8c3.6-3.2,7.4-7.6,8.6-9.8c6.6-12.9,0.3-29.5-13.9-36.5
		c-4.9-2.4-6.8-2.7-14.7-2.7c-11.1,0-19,2-31.1,7.9c-15.9,7.7-33,26.1-40.8,43.8c-8.8,19.9-10.5,43.9-4.6,65.4
		c1.8,6.7,9.7,26.3,10.9,27.4c1,0.9,7.1,11.1,7.1,12c0,0.5,0.3,1,0.8,1.2c0.4,0.2,2.3,2.4,4.2,4.8c9.6,12.6,25.2,26.5,48,43.1
		c6.9,5,13.4,9.7,14.5,10.5s9.1,6.3,17.8,12.3c15.9,10.9,20.7,14.7,20.7,16.3c0,0.5-1.1,2-2.5,3.3c-4.8,4.8-15.6,2.1-23-6
		c-2.2-2.4-5.4-5.3-7.2-6.5c-2.1-1.4-3.7-3.8-4.8-6.9c-2.2-6.6-5.3-8.6-13.1-8.5c-8.4,0.1-13.6,1.7-16.7,5c-5.1,5.5-6,10.1-1.7,8.7
		c2.3-0.7,6.9,1.9,6.9,4c0,2-3,2.4-6.7,0.9c-4.6-1.9-7.5-1.6-11.3,0.9c-6.1,4.2-9.4,13.8-7.3,21.5l0.6,2.2l2.8-2
		c2.9-2.1,4.7-2.4,7.5-1.3c1.4,0.5,0.9,1.3-2.6,4.3l-4.2,3.7l0.2,8.3c0.2,9.5,1.4,12.1,6.7,14.6c1.9,0.9,3.6,1.5,3.7,1.3
		s0.7-1.6,1.4-3.1c0.6-1.5,1.9-2.8,2.7-2.8c1.6,0,2.3,2.2,2.8,8c0.2,3.1,0.8,3.8,5.8,6.3c4.7,2.4,6.4,2.8,11.8,2.5
		c4.1-0.2,6.8-0.9,7.9-2.1c1.6-1.6,1.5-1.8-0.5-4c-2.7-2.9-2.1-5.1,2.2-6.8c3.6-1.4,7.8-5.6,12-11.9c3.7-5.5,7.9-7.2,17-6.8
		c7.4,0.3,9,1.4,6.3,4.1c-0.8,0.8-1.5,1.8-1.5,2.2c-4.2,6-10.4,11.6-14.8,16.5c-0.5,0-2.1,1.1-3.6,2.5s-3,2.5-3.4,2.5
		c-0.8,0-5.2,9.2-5.2,10.9c0,0.6,1.2,2.3,2.6,3.6c3.3,3.1,10.4,3.3,19.3,0.5c6.3-2,18.7-8.8,21-11.5c1.9-2.2,2.6-2,4.8,1.8
		c1.3,2.1,3,3.6,4.8,3.9c3.5,0.7,9.4-1.4,13.8-4.7c5.5-3.2,7.9-7.3,11.9-12.7c1-1.1,2.2-2.9,2.6-4.1c0.7-1.9,0.9-1.5,1.6,2.5
		c0.8,5.3-1.2,12.8-5.2,19.2c-3,4.7-8.9,7.5-17.7,8.3c-5.5,0.5-7,0.3-10.1-1.5c-2.3-1.4-5.3-2.1-8.3-2.1c-4,0-5.4,0.6-9.6,4
		c-2.7,2.2-5.2,4-5.7,4c-2.1,0-5.9,7.6-5.9,11.7c0,4.8,0.1,4.9,3.5,2.7c2.6-1.7,8.5-1.1,8.5,0.8c0,0.6-1.5,2.5-3.4,4.2
		c-3.1,2.9-3.4,3.7-4.1,11.2c-0.8,9,0.3,12.8,4.6,15.8c2.9,2.1,6.2,2.1,5.4,0c-0.8-2.2,1.5-5.5,3.8-5.5c2.5,0,6.6,3.8,6.6,6.1
		c0,2.5,4.2,9.5,7.1,11.7c1.5,1.2,4.4,2,7.6,2.1c5.1,0.2,5.2,0.2,5-2.6c-0.2-2.3,0.3-2.9,2.1-3.2c1.7-0.2,3.4,0.8,6.1,3.7
		c3.2,3.4,4.4,4.1,7.7,4.1c2.2,0,4.9-0.7,6.2-1.6c1.2-0.9,2.6-1.3,3-1.1c1.8,1.1,6.9-3.2,7.5-6.4c1.1-5.6,0.9-6-2.5-5.3
		c-3.1,0.6-3.1,0.6-2.5-2.8c0.4-1.9,0.2-4.9-0.3-6.8c-0.8-2.7-0.6-4.1,1-7.2c2.5-4.9,2.5-8.1,0-15.4c-1.1-3.2-2-6.5-2-7.3
		c0-2.2,12.8-28.2,13.9-28.2c2.2,0,4,3.4,4.7,8.7c0.9,6.5,1.1,31.2,0.3,48.3c-0.6,13.7,0.5,17.3,5.5,19c8.2,2.7,18.1-7.4,20.9-21.2
		l1.3-6.3l0.7,4.8c1.2,7.9,3.5,14.4,6.2,17.7c2.2,2.6,3.3,3,7,3c6.5,0,9.8-2.1,12.8-8.4c2-4.1,2.8-7.5,3.2-14.5l0.6-9.1l5.7,8.2
		c6.2,8.8,10.8,12.3,17.1,12.8c10.7,0.9,15.1-14.1,8.4-28.8c-1.3-2.9-2.3-5.3-2.1-5.3s-0.5-1-1.5-2.2c-1.1-1.2-4.3-5.2-7.2-8.9
		s-11.5-14-19.2-23c-21.3-25.1-31.5-42-34.7-57.6c-1.4-6.9-0.5-11.5,2.3-12.1c2.1-0.4,3.5,4,4.2,13.8c0.6,8.2,2,13.1,4.7,17.1
		c1,1.4,1.6,2.8,1.4,3c-0.5,0.5,2.2,0.9,8.5,1.1l4.5,0.2l2.1,8.5c4.7,19,11.7,27.6,21.7,26.8c4-0.3,4.2-0.1,7.9,5.2
		c3.6,5.1,14.4,17,15.5,17c0.3,0,2.2,1.3,4.2,2.9c8.9,7,23.7,9.6,28.6,5c3.4-3.2,3.3-8.4-0.2-13.6c-1.4-2.1-5.6-7-9.2-10.9
		s-7.5-8.8-8.6-11s-2.3-4.2-2.6-4.5c-0.4-0.3-1.4-2.3-2.4-4.5c-5.5-12.7-7.6-26.1-5.6-35.5c1.9-8.7,12.7-29.8,25.7-50.2
		c7.5-11.7,22.1-39.1,28.2-52.9c6.6-15,11.3-29.3,13.6-41.7C377.7,125,377.5,103.8,375,93.7z M196.7,89.2c-2.3,3.4-4.5,6.2-4.9,6.2
		c-1,0-3.9-8.9-3.9-11.9c0-1.4-1.6-7.1-3.5-12.6c-5-14.2-4.6-18.8,1.7-22.1c5.9-3,14.5,1,17.5,8.2C207,65.3,204.3,78.1,196.7,89.2z"
		/>
	<path id="path6112" class="st1" d="M180.5,414.6c1.6-0.9,3.8-1.3,4.8-1.1c2.2,0.6,5.4-2,6.3-5.2c0.5-1.9,0.3-2.3-1.2-2.1
		c-5,0.5-5,0.5-4.9-9.8c0.1-5.6,0.6-10.7,1.3-11.9c1.7-3.1,1.5-6.5-0.8-12.3c-2.8-7.2-2.5-10,2.1-19.2c5-9.9,4.8-12.1-1.5-14.9
		c-5.3-2.3-6.6-1.9-9.1,2.8c-4.7,8.8-8.7,11.4-20.6,13.4c-7.3,1.2-7.8,1.2-11.4-1c-5.1-3-11.2-3.2-13.4-0.4c-0.9,1.2-3.5,3-5.6,4.1
		c-4.5,2.3-6.9,4.7-7.9,8.1c-0.7,2.2-0.5,2.3,1.6,1.8c1.3-0.3,3.8-0.6,5.6-0.6c1.8,0,3.8-0.6,4.5-1.4c1.1-1.1,1.4-1,2.3,0.8
		c1.4,2.8,5.5,3.2,8.1,0.8c1.4-1.3,2.5-1.7,3.5-1.1c0.8,0.5,4.3,0.9,7.9,0.9h6.5l-2.5,2.1c-1.4,1.2-4.9,3.2-7.9,4.6
		c-4.6,2.1-6.3,2.4-11.7,1.9s-6.7-0.3-8.9,1.5c-2.2,1.7-2.6,2.8-2.4,5.9c0.2,2.1-0.3,4.4-0.9,5.1c-1.5,1.5-1.6,6.3-0.2,8.9
		s2.7,2.4,3.5-0.3c0.9-2.9,2.2-3.7,5.8-3.7c1.8,0,3.8-1,5.5-2.9c1.8-2,4.4-3.2,8.1-4c3.7-0.8,6.5-2.2,8.8-4.4l3.4-3.2l-0.7,3.5
		c-1.1,5.1-3.3,8.5-8.2,12.1c-5.2,3.9-5.8,5.6-4.3,12c0.9,3.9,1.9,5.5,4.3,6.9c3.3,2,6.6,2.5,6.6,1c0-0.5-0.4-1.2-1-1.6
		c-1.7-1.1-1.1-3,1.2-4c1.6-0.7,2.4-2.1,2.8-5c0.4-3.4,1-4.2,4.2-5.7c2-1,4.8-3.4,6.2-5.4l2.5-3.6l0.7,3.8c0.4,2.4,0.2,5.6-0.6,8.4
		c-2.4,8.2-2.4,11.6-0.1,13.9C175.4,416.6,176.5,416.6,180.5,414.6z"/>
	<path id="path6110" class="st2" d="M219.3,407.1c6.4-5.1,10.6-17.6,10.6-32.1c0-6.9-3.7-27.9-7-38.8c-1.3-4.4-1.2-7.3,0.1-4
		c2.4,5.9,9.9,34.7,12.9,49c4,19.4,6.1,24.6,10.1,25.4c11.7,2.3,17.4-14.8,11.8-35.6c-1.6-5.8-4-10.8-9.2-19.1
		c-15.7-25-26.7-44-23.9-41.2c0.6,0.5,9.7,14.3,20.3,30.5c20.5,31.4,33.8,50.1,37.2,52.5c1.2,0.8,3.6,1.5,5.4,1.5
		c7.6,0,9.5-12.6,3.8-24c-3.3-6.4-8.8-13.9-20-27c-15.1-17.6-29.9-37.4-34.6-46.5c-6.4-12.1-11.5-27.9-12.8-39.2
		c-1.2-10.8-0.2-22.9,3.5-39.8c4.2-19.8,5.8-33.8,5.2-47.5c-0.5-12.2-0.5-12.4,1-8.2c5,14.1,26.2,8.4,26.3-7c0-5.8,1.9-5.5,2.6,0.4
		c0.5,3.9,1.4,6,3.6,8.2c2.6,2.6,3.4,2.8,8.1,2.4c4.4-0.4,5.6-1,8.4-4.2c2.5-2.9,3.4-5,3.9-9.4c1-8.8,1.8-9.3,2.4-1.6
		c0.8,10.1,4.1,13.3,11.7,11.2c8.9-2.4,12.2-8.9,13.1-26.1c0.8-14.4,1.9-11.9,2.1,4.5c0.1,5.9,0.6,11.8,1.2,13.1
		c2.2,4.8,8.7,6.9,14.6,4.6c9.7-3.7,13.4-16.2,9.9-33.1c-3.4-15.9-11.1-23.7-36.5-36.5c-8.6-4.3-15.1-6.5-15-5.1
		c0,0.1,0.7,2.5,1.5,5.2c3.2,10.5,0.9,21.2-6,28.1c-10.6,10.6-27.8,9.1-37.2-3.1c-3.7-4.9-4.2-12.7-1.8-31.6
		c3.6-29.2-0.6-50.3-12.7-63.4C220.2,4.8,191.3,0,169.2,8.9c-5.3,2.1-8.2,4.3-14.7,10.7c-4.5,4.4-8.8,9.2-9.7,10.6
		c-1.2,1.9-1.7,2.1-2,1c-0.3-0.8-1.4-4.8-2.7-8.8c-1.2-4-2.5-7.2-2.9-7.2s-3,2.8-5.8,6.2l-5.1,6.2l3.1,6.5c2.7,5.8,3.1,7.5,3.1,15.5
		c0,4.9-0.4,14.4-0.9,21.1c-1.1,14.6,0,20.5,4.9,26.1c9.5,11,32.1,12.7,41.3,3.1c7.4-7.8,8-14.3,2.8-29.2c-4-11.4-4.3-15.7-1.5-20.2
		c2.8-4.6,7.3-6.6,13.5-6.1c6.5,0.5,10.6,3.4,13.5,9.3c3.3,6.9,3.7,14,1,22.7c-2.9,9.4-4.9,13.3-10.3,19.8l-4.4,5.3l1.9,8.7
		c2.3,10.2,1.9,25.9-0.9,40.7c-1,5.4-1.8,14.2-1.8,22.2c-0.1,12.6,0,13.3,2.3,15.8l2.4,2.6h-4.9c-6.6,0-12.8-3.2-17.4-8.9
		c-2-2.6-8.6-15.4-14.7-28.4c-9.6-20.7-11.2-23.7-13-23.3c-15.1,3.5-17.5,3.8-24.2,3.3c-3.9-0.3-10-1.5-13.5-2.7
		c-12-4-18.7-10.5-21.3-20.6c-1.4-5.5-1.4-6.9-0.1-13c0.8-3.8,1.8-7.7,2.2-8.7c0.7-1.8,0.4-1.9-5.7-1.2c-10.4,1.2-20,3.6-26.3,6.8
		c-7,3.5-15.8,11.5-19.3,17.6c-6.2,10.6-8.9,28.6-5.9,40.2c2,7.6,2.8,8.8,8.1,11.2c5.2,2.3,8.7,2.3,11.6,0c2.3-1.8,2.4-2.3,2.1-13.8
		c-0.2-8.3,0.1-13.2,1.2-16.3c1.4-4.5,1.4-4.4,1.5,7.9c0.1,10.5,0.4,13.1,2.2,16.8c2.4,5.1,6.1,7.3,11.9,7.3c3.4,0,4.8-0.6,7.5-3.4
		c3-3,3.4-4.1,3.4-8.4c0-2.7,0.3-6.5,0.7-8.4c0.6-2.8,0.9-1.5,1.9,6.8c1.3,10.7,2.7,14,7.2,16.9c3.6,2.4,10.6,2.3,13.3-0.2
		c2.7-2.4,5.8-9,6-12.9c0.1-2.5,0.3-2.3,1.1,1.5c2.3,11,2.8,12.1,6.4,13.6c7.1,3,13.1,0.6,17.6-7c1.7-2.8,2.7-4.2,2.4-3.1
		c-3.7,10.9-4.8,17.7-4.9,30c-0.1,10.2,0.3,14.2,1.8,18.5c4.9,14.2,11.3,24.3,19.9,31.4l4.5,3.7l4.7-3c12.3-7.8,25.4-6.1,35.8,4.8
		c2.4,2.5,5,6.1,5.6,8c1.9,5.8,1.2,5.8-1.9,0.1c-1.6-3-4.6-6.9-6.5-8.6c-10.9-9.6-32.2-6.4-40,6.1c-2.5,4.1-3.1,6-3.4,12.6
		c-0.4,9.9,2,15.6,11.1,26c3.5,4.1,7.6,9.4,9,11.9c3.9,6.8,6.8,17.3,6.8,25c0,6.7,0,6.8,3,7.5c1.6,0.4,4.6,1.8,6.6,3.1
		c2,1.4,3.7,2.3,3.9,2.2c0.1-0.2,1.4-2.4,2.9-4.9c1.5-2.6,5-6.6,7.9-9c5.1-4.2,5.4-4.1,1.7,1.1c-1.7,2.4-1.7,2.7,0.3,8.5
		c2.9,8.4,4.1,26.9,2.9,43c-1.5,20.1-1.4,24.8,1.1,27.9C213.6,409.7,215.8,409.8,219.3,407.1z"/>
	<path id="path6106" class="st1" d="M170.4,404.1c0.9-2.2,1.6-5.9,1.6-8.2v-4.2l-1.8,3c-1,1.6-3,3.6-4.5,4.4c-3.5,1.9-3.8,6.7-0.4,8
		C168.6,408.5,168.6,408.5,170.4,404.1z"/>
	<path id="path6104" class="st2" d="M145.8,395.4c1.6-1.5,4.1-3.6,5.6-4.6c2.8-1.9,6.2-6.4,5.4-7.2c-0.3-0.3-2.2,0.4-4.4,1.4
		s-5.5,2.2-7.4,2.5c-2,0.4-4.3,1.7-5.3,3.1c-1.7,2.3-1.7,2.5,0.5,4.9c1.2,1.3,2.3,2.5,2.4,2.5C142.8,398.1,144.2,396.9,145.8,395.4z
		"/>
	<path id="path6102" class="st2" d="M149.6,371.1l4.9-2.3l-5-0.9c-3.1-0.5-6.4-0.5-8.5,0.1c-1.9,0.5-4.6,1.1-6,1.3
		c-1.4,0.1-2.6,1-2.8,1.9C131.5,374.8,142,374.6,149.6,371.1z"/>
	<path id="path6100" class="st2" d="M333.3,358.1c1.7-2.8-0.1-6.7-6.4-13.6c-15.9-17.6-22-30.7-24.4-52.3
		c-1.8-16.3,5-51.5,14.2-73.4c1.3-3.2,2.2-6.1,1.9-6.4c-0.3-0.3-1.8,1-3.3,2.8c-4.9,5.9-10.2,9-15,9h-4.4l-3,6.3
		c-6.7,14.3-10,34.2-10.1,59.7c0,28.7,4.7,42.8,18.7,55.9c9.8,9.1,19.3,14.2,25.8,13.9C330.6,359.7,332.6,359.1,333.3,358.1z"/>
	<path id="path6098" class="st2" d="M121.9,343.1c8.2-3.8,17.8-11.6,23.2-18.8c4.1-5.5,11.6-19.8,10.8-20.6
		c-0.2-0.2-2.4,0.1-4.9,0.6c-2.5,0.6-7.9,1-12.2,1h-7.7l-3.2,5.6c-3,5.3-11,13.9-22.6,24.7c-3.4,3.2-5.2,5.6-5.2,7.1
		C100,347.9,111,348.1,121.9,343.1z"/>
	<path id="path6096" class="st2" d="M158.4,336c4.6-3.1,13.7-14,17-20.6c1.6-3.1,1.5-3.5-0.5-8.2c-3-7-3.8-7.5-10-6l-5.1,1.2
		l-4.8,10.3c-7.3,15.7-9.6,22.8-8,24.8C149,340,153.2,339.5,158.4,336z"/>
	<path id="path6094" class="st2" d="M82.9,333.3c1-0.6,0.3-1.2-2.5-2.1c-2.3-0.8-3.3-1.5-2.4-1.7c0.8-0.3,3.1-1.9,5-3.6
		c1.9-1.8,5.1-4.3,7.1-5.6c2-1.3,5.1-4.5,6.9-7.1c5.2-7.7,7.3-9.1,15.8-10.8l7.8-1.6l0.3-6.2l0.3-6.2l-5.4-1.1
		c-4.5-0.9-7-2.4-14.8-9c-8.8-7.3-12-11.2-12-14.5c0-0.7-1.4-2.6-3.1-4.2c-2.8-2.7-3.6-2.9-9.8-2.8c-7.3,0.1-11.2,1.6-15.1,5.8
		l-2.5,2.6l4.5-0.7c2.5-0.4,5.6-1.1,7-1.6l2.5-0.9l-2.3,2.5c-1.9,2-2.1,2.8-1.2,4.6c1.1,2,2.8,2.7,7.9,3.3c1.4,0.2,3.9,2.1,5.9,4.5
		c4.1,4.9,3.7,5.4-1,1.4c-3.2-2.7-11.3-5.6-13-4.5c-0.4,0.3-1.3,1.3-1.8,2.4c-0.9,1.6-0.3,2.1,4.7,3.9l5.7,2.1l-5-0.6
		c-2.8-0.3-6.6-1.6-8.5-2.9c-7.4-5-12.5-5.7-15.8-2.2c-2.8,3-5.2,8.9-5.2,12.8c0,2.8,0.3,3,2.2,2.4c3.1-1,4.8-2.4,4.8-4.3
		c0-1.2,0.5-1,2.1,0.7s2.8,2.1,4.8,1.6c1.5-0.3,6.1,0.1,10.2,0.9s8.9,1.5,10.7,1.5c5.1,0,3.9,1.3-4.1,4.3c-4.9,1.8-9.3,2.8-13.1,2.8
		c-8.5,0-11.1,1.9-12.5,9.2c-1.3,6.5-0.8,9.2,2.2,12.6c2.7,2.9,3.7,2.8,3.7-0.2c0-1.6,0.8-2.9,2.2-3.6c1.2-0.6,3.7-2.7,5.4-4.5
		c2.7-2.9,3.9-3.4,7.7-3.4c2.5,0,5.3-0.3,6.3-0.6c1.7-0.5,1.7-0.4-0.1,1c-1.1,0.9-3.7,1.6-5.9,1.6c-2.6,0-4.4,0.6-5.3,1.8
		c-2.6,3.4-1.1,9,1.5,5.8c0.6-0.8,3.3-2.3,6-3.5c5.2-2.3,9.2-6.8,7.1-8.1c-1.5-0.9-0.5-1.5,3.9-2.5l3.4-0.7l-3.7,4.8
		c-2.3,3-5.8,6-9.4,7.9c-8.4,4.5-9.7,11.1-3,15.4C73.6,334.2,80.4,334.8,82.9,333.3z"/>
	<path id="path6092" class="st2" d="M279.7,324.9c0.4-0.7,0.8-14.3,0.8-30.2c0-32.7,1-40,8.2-59.3c3.1-8.2,3.6-11.1,3.7-18.5
		c0.1-4.8-0.2-8.7-0.6-8.8s-0.8,0.4-0.8,0.9s-1.9,3-4.2,5.6c-4.3,4.9-8.9,7.5-13.1,7.5c-2.1,0-2.7,1.1-5.5,9.8
		c-5.5,16.6-7.7,30.6-7.7,48.8c0,17.1,1.1,23.7,5.9,34C270.7,324.1,277,329,279.7,324.9z"/>
	<path id="path6090" class="st2" d="M160.5,300.1c2.9-1.1,5.6-2.6,5.9-3.4c0.3-0.8-1-3.4-2.9-5.7c-13.2-16.4-15.3-25.3-8.9-38.5
		l2.5-5.3l-5.7-6.2c-3.1-3.4-7.7-9.4-10.3-13.2c-2.5-3.9-4.7-7.2-4.9-7.4c-0.7-0.9-5.5,1.1-8.4,3.6c-4.3,3.6-6.9,9.6-6.9,16.1
		c0,4.5,0.9,7,6.5,18c7.9,15.4,8.7,18.7,5.2,22.9c-1.4,1.6-4.1,3.8-6,4.8c-3.4,1.8-3.4,1.9-3.5,8.7c0,6.2,0.2,6.9,2.1,7.3
		C134.3,303.6,153.2,302.8,160.5,300.1z"/>
	<path id="path6088" class="st1" d="M73.6,295.4c1.2-0.6,0.2-1.3-3.6-2.5c-6-1.9-8.3-2.1-11-0.6c-2.2,1.2-2.6,3.5-0.7,4.4
		C60,297.3,71.7,296.4,73.6,295.4z"/>
	<path id="path6086" class="st2" d="M254.9,289.4c0.7-1.5,1.9-8.4,2.7-15.2c1.8-16.1,4.7-31.4,7.9-41.5c3-9.7,3-10.1,0.5-15
		c-1.1-2.2-2-4.5-2-5.2c0-1.9-0.8-1.6-4.2,1.2c-1.6,1.4-5,3-7.4,3.6c-4.2,1.1-4.5,1.4-5.9,6.2c-4,13.4-5.7,25.2-5.8,39.6
		c-0.1,21.2,2.7,29,10.4,29C252.9,292.2,254,291.4,254.9,289.4z"/>
	<path id="path6084" class="st2" d="M131,271.7c-0.4-1.9-3.4-8.7-6.6-15.1c-5.1-10.3-6.3-12-10.2-14.3c-11-6.5-32.5-21-40.2-27.1
		c-36.1-28.8-51.9-63.7-42.6-94.2c4.6-15.2,22-30.1,39.8-34.2c3.5-0.8,9.8-2.2,13.9-3c10.1-2.1,17.5-6.6,20.6-12.4
		c5.6-10.8,0.5-25.1-11.2-31.4c-3.4-1.8-5.6-2.2-15-2.1c-9.4,0-12.1,0.4-18.3,2.7c-11.7,4.2-20.8,10.3-30.8,20.2
		C4.5,86.5-1.9,123.7,12.9,163.2c2.4,6.3,12.3,22.9,18.4,30.9c11.9,15.4,38.2,37.2,82.3,67.9c7.2,5,13.9,10,14.9,11.1
		C131.1,276.1,131.9,275.6,131,271.7z"/>
	<path id="path6082" class="st2" d="M333.4,223.7c21.2-36,30.9-57,36.2-78c3.4-13.4,4.4-37.5,1.9-47.9c-4-16.9-11.6-30.8-23-42.2
		c-8.9-8.8-16.6-13.5-30.1-18c-15.1-5.1-34.2-3.1-41.1,4.4c-8.4,9-6.5,24.5,3.9,32.4c4.9,3.7,8.1,5.4,24.6,12.8
		c19.1,8.6,29.4,17.2,35.2,29.4c3.2,6.8,3.3,7.3,3.3,20c-0.1,19-3.3,30.2-20.4,70c-3.8,8.8-8.2,20.1-9.9,25
		c-3.4,10.1-8.2,32.4-8.2,37.6c0,3,0.7,2.1,5.8-7.6C315,255.6,324.7,238.5,333.4,223.7z"/>
	<path id="path6080" class="st2" d="M234.8,254.3c3.3-3.1,4.5-6.5,8.6-25.8c2.1-9.9,2.4-12.7,1.5-15.3c-0.6-1.8-1.4-3.1-1.8-2.9
		c-11.4,5.3-11.2,5.1-12.7,10.4c-2.7,9.2-4.6,33.9-2.8,35.7C229.1,257.9,231.9,257,234.8,254.3z"/>
	<path id="path6078" class="st2" d="M120.4,229.4c0.9-1.7,1.6-3.7,1.6-4.5c0-2-13.2-12.3-16.8-13.1c-1.7-0.4-5.7-2.4-9-4.5l-6-3.8
		l-1.1,4.4c-1.1,4.5-4.1,7.5-7.4,7.5c-4.9,0,3,6.2,23.8,18.7l12,7.2l0.6-4.3C118.5,234.4,119.5,231.1,120.4,229.4z"/>
	<path id="path6076" class="st2" d="M305.7,220.2c7.3-3.3,12.8-10.1,20.1-25c6.2-12.4,14.1-33.6,14.1-37.4c0-1.2-1-0.9-4.7,1.4
		c-8.2,5.2-13.7,4.8-19.6-1.6l-2.4-2.5l-2.6,3.9c-1.4,2.1-3.9,4.4-5.5,5.1c-2.8,1.2-3,1.6-3.5,9c-0.3,4.3-2,13.9-3.6,21.4
		c-3.6,16.4-3.9,22.9-1,25.7C299.4,222.6,300.4,222.6,305.7,220.2z"/>
	<path id="path6074" class="st2" d="M129.5,219c3.1-1.4,4-4.4,3.1-10.5c-1.1-7.2-1.4-7.7-3.6-5.8c-2,1.8-6.1,2.3-9.6,1.1
		c-1.9-0.6-2.2-0.4-2.2,1.3c0,1.1-0.9,3-2.1,4.1c-2,2-2,2.2-0.4,4.6c1.5,2.3,8.5,6.3,11.2,6.3C126.3,220.1,128,219.6,129.5,219z"/>
	<path id="path6072" class="st2" d="M279.7,218.2c9.1-5.5,19.3-29.8,19.3-45.7c0-6.2,0-6.3-2.8-6.3c-1.5,0-4.2-0.9-6.1-2l-3.3-2
		l-3.3,2.8c-1.8,1.5-4.7,3.6-6.4,4.5c-2.7,1.4-3.1,2.3-3.1,5.5c0,5-2.4,18.7-5,27.9c-2.5,9.3-2.6,12.8,0,15.3
		C271.5,220.7,275.6,220.7,279.7,218.2z"/>
	<path id="path6070" class="st2" d="M257.9,212.5c7.4-4.3,13.8-23.4,12.8-38c-0.3-4.1-0.7-4.9-2.4-5.2c-1.2-0.2-3.3-1.6-4.8-3.1
		l-2.7-2.8l-5.2,5.2l-5.2,5.2l-1.4,14.9c-1.8,19.2-1.8,23.2,0,24.4C251.3,214.6,254.9,214.3,257.9,212.5z"/>
	<path id="path6068" class="st2" d="M81.7,212.1c3.8-1.3,5.7-5.4,4.8-10.7c-0.4-2.3-3.8-8.8-8.6-16.3c-4.4-6.8-8.2-13.2-8.5-14.2
		s-2.8-2.9-5.4-4.2c-2.7-1.4-5.2-3-5.5-3.6c-0.4-0.7-1.7-0.1-3.6,1.7c-2.4,2.3-3.9,2.8-7.6,2.8c-2.6,0-5.8-0.4-7.1-0.9
		c-2.2-0.8-2.3-0.7-1.7,2c2.4,9.8,25.3,37.5,34.9,42.3C78.2,213.5,77.8,213.5,81.7,212.1z"/>
	<path id="path6066" class="st2" d="M241.3,208.7c3.1-2.9,4.3-7.2,5.6-21c1.3-14.3,1.4-13.5-1.5-13.5c-1.4,0-4-0.6-5.9-1.4l-3.3-1.4
		l-0.6,8.6c-0.4,4.8-1.4,13.5-2.2,19.4c-0.9,5.9-1.3,11.4-1,12.2C233.1,213.5,237.8,212,241.3,208.7z"/>
	<path id="path6064" class="st2" d="M112.8,207c2.2-2.2,1.3-7.7-2.7-15.6c-2.1-4.3-4.7-9.9-5.7-12.6s-2.3-5-2.9-5.2
		s-3.2-0.9-5.9-1.5c-4.7-1.2-9.3-4.6-11.4-8.4c-1-1.8-1.3-1.8-4.9,1.2c-2.1,1.7-4.4,3.2-5.1,3.2c-2.5,0-2.3,2.1,0.8,8.2
		c7.5,15,18.3,27.8,25.5,30.3C105.4,208.4,111.2,208.5,112.8,207z"/>
	<path id="path6062" class="st2" d="M128.4,199.2c1.2-1.4,2-4.7,2.6-11.2c0.5-5.1,1.2-10.9,1.6-12.7c0.7-3.1,0.6-3.3-1.2-2.6
		c-2.9,1.3-9.1,1.8-12.1,1c-1.5-0.4-4.1-2.2-5.8-4l-3.1-3.3l-2.7,3.3L105,173l1.9,6.1c2.4,7.7,9.6,19.9,12.4,21
		C123,201.6,126.6,201.3,128.4,199.2z"/>
	<path id="path6060" class="st1" d="M191,189.5c0-0.3-1.4-2.2-3-4.1c-4.8-5.5-10.5-17.8-21.6-46.8c-6.2-16.3-11.1-27.7-12.4-28.7
		c-2.6-2.2-9.8-3.4-11.3-1.9c-0.8,0.8-0.7,2.4,0.5,5.9c3,9.2,28.1,62.1,31.7,66.8c2,2.6,5.6,5.9,8.1,7.1
		C187.1,190,191,190.9,191,189.5z"/>
	<path id="path6058" class="st1" d="M186.2,163.9c-11.6-33.4-18.7-52.6-20.2-54.1c-1.2-1.3-2.4-1.6-4.5-1.1c-2.6,0.7-2.7,1-2.2,4.8
		c0.3,2.3,4.9,15.1,10.2,28.6c11.2,28.7,14.1,35.5,16.9,39.5l2.1,3l0.3-6.2C189,173.6,188.4,170.4,186.2,163.9z"/>
	<path id="path2402" class="st1" d="M191.5,151.7c3-20.5,1.6-43.5-3.2-52.7c-1.8-3.6-3.3-3.5-6.9,0.2c-1.6,1.6-4.6,4.2-6.7,5.6
		c-2.1,1.5-4.1,3.6-4.4,4.8c-0.4,1.7,16,50.3,18.2,53.9C189.5,164.9,189.8,164,191.5,151.7z"/>
	<path id="path5265" class="st1" d="M145.8,395.4c1.6-1.5,4.1-3.6,5.6-4.6c2.8-1.9,6.2-6.4,5.4-7.2c-0.3-0.3-2.2,0.4-4.4,1.4
		s-5.5,2.2-7.4,2.5c-2,0.4-4.3,1.7-5.3,3.1c-1.7,2.3-1.7,2.5,0.5,4.9c1.2,1.3,2.3,2.5,2.4,2.5C142.8,398.1,144.2,396.9,145.8,395.4z
		"/>
	<path id="path5263" class="st1" d="M149.6,371.1l4.9-2.3l-5-0.9c-3.1-0.5-6.4-0.5-8.5,0.1c-1.9,0.5-4.6,1.1-6,1.3
		c-1.4,0.1-2.6,1-2.8,1.9C131.5,374.8,142,374.6,149.6,371.1z"/>
	<path id="path5261" class="st3" d="M333.3,358.1c1.7-2.8-0.1-6.7-6.4-13.6c-15.9-17.6-22-30.7-24.4-52.3
		c-1.8-16.3,5-51.5,14.2-73.4c1.3-3.2,2.2-6.1,1.9-6.4c-0.3-0.3-1.8,1-3.3,2.8c-4.9,5.9-10.2,9-15,9h-4.4l-3,6.3
		c-6.7,14.3-10,34.2-10.1,59.7c0,28.7,4.7,42.8,18.7,55.9c9.8,9.1,19.3,14.2,25.8,13.9C330.6,359.7,332.6,359.1,333.3,358.1z"/>
	<path id="path5259" class="st3" d="M121.9,343.1c8.2-3.8,17.8-11.6,23.2-18.8c4.1-5.5,11.6-19.8,10.8-20.6
		c-0.2-0.2-2.4,0.1-4.9,0.6c-2.5,0.6-7.9,1-12.2,1h-7.7l-3.2,5.6c-3,5.3-11,13.9-22.6,24.7c-3.4,3.2-5.2,5.6-5.2,7.1
		C100,347.9,111,348.1,121.9,343.1z"/>
	<path id="path5257" class="st3" d="M158.4,336c4.6-3.1,13.7-14,17-20.6c1.6-3.1,1.5-3.5-0.5-8.2c-3-7-3.8-7.5-10-6l-5.1,1.2
		l-4.8,10.3c-7.3,15.7-9.6,22.8-8,24.8C149,340,153.2,339.5,158.4,336z"/>
	<path id="path5255" class="st1" d="M82.9,333.3c1-0.6,0.3-1.2-2.5-2.1c-2.3-0.8-3.3-1.5-2.4-1.7c0.8-0.3,3.1-1.9,5-3.6
		c1.9-1.8,5.1-4.3,7.1-5.6c2-1.3,5.1-4.5,6.9-7.1c5.2-7.7,7.3-9.1,15.8-10.8l7.8-1.6l0.3-6.2l0.3-6.2l-5.4-1.1
		c-4.5-0.9-7-2.4-14.8-9c-8.8-7.3-12-11.2-12-14.5c0-0.7-1.4-2.6-3.1-4.2c-2.8-2.7-3.6-2.9-9.8-2.8c-7.3,0.1-11.2,1.6-15.1,5.8
		l-2.5,2.6l4.5-0.7c2.5-0.4,5.6-1.1,7-1.6l2.5-0.9l-2.3,2.5c-1.9,2-2.1,2.8-1.2,4.6c1.1,2,2.8,2.7,7.9,3.3c1.4,0.2,3.9,2.1,5.9,4.5
		c4.1,4.9,3.7,5.4-1,1.4c-3.2-2.7-11.3-5.6-13-4.5c-0.4,0.3-1.3,1.3-1.8,2.4c-0.9,1.6-0.3,2.1,4.7,3.9l5.7,2.1l-5-0.6
		c-2.8-0.3-6.6-1.6-8.5-2.9c-7.4-5-12.5-5.7-15.8-2.2c-2.8,3-5.2,8.9-5.2,12.8c0,2.8,0.3,3,2.2,2.4c3.1-1,4.8-2.4,4.8-4.3
		c0-1.2,0.5-1,2.1,0.7s2.8,2.1,4.8,1.6c1.5-0.3,6.1,0.1,10.2,0.9s8.9,1.5,10.7,1.5c5.1,0,3.9,1.3-4.1,4.3c-4.9,1.8-9.3,2.8-13.1,2.8
		c-8.5,0-11.1,1.9-12.5,9.2c-1.3,6.5-0.8,9.2,2.2,12.6c2.7,2.9,3.7,2.8,3.7-0.2c0-1.6,0.8-2.9,2.2-3.6c1.2-0.6,3.7-2.7,5.4-4.5
		c2.7-2.9,3.9-3.4,7.7-3.4c2.5,0,5.3-0.3,6.3-0.6c1.7-0.5,1.7-0.4-0.1,1c-1.1,0.9-3.7,1.6-5.9,1.6c-2.6,0-4.4,0.6-5.3,1.8
		c-2.6,3.4-1.1,9,1.5,5.8c0.6-0.8,3.3-2.3,6-3.5c5.2-2.3,9.2-6.8,7.1-8.1c-1.5-0.9-0.5-1.5,3.9-2.5l3.4-0.7l-3.7,4.8
		c-2.3,3-5.8,6-9.4,7.9c-8.4,4.5-9.7,11.1-3,15.4C73.6,334.2,80.4,334.8,82.9,333.3z"/>
	<path id="path5253" class="st3" d="M279.7,324.9c0.4-0.7,0.8-14.3,0.8-30.2c0-32.7,1-40,8.2-59.3c3.1-8.2,3.6-11.1,3.7-18.5
		c0.1-4.8-0.2-8.7-0.6-8.8s-0.8,0.4-0.8,0.9s-1.9,3-4.2,5.6c-4.3,4.9-8.9,7.5-13.1,7.5c-2.1,0-2.7,1.1-5.5,9.8
		c-5.5,16.6-7.7,30.6-7.7,48.8c0,17.1,1.1,23.7,5.9,34C270.7,324.1,277,329,279.7,324.9z"/>
	<path id="path5251" class="st3" d="M160.5,300.1c2.9-1.1,5.6-2.6,5.9-3.4c0.3-0.8-1-3.4-2.9-5.7c-13.2-16.4-15.3-25.3-8.9-38.5
		l2.5-5.3l-5.7-6.2c-3.1-3.4-7.7-9.4-10.3-13.2c-2.5-3.9-4.7-7.2-4.9-7.4c-0.7-0.9-5.5,1.1-8.4,3.6c-4.3,3.6-6.9,9.6-6.9,16.1
		c0,4.5,0.9,7,6.5,18c7.9,15.4,8.7,18.7,5.2,22.9c-1.4,1.6-4.1,3.8-6,4.8c-3.4,1.8-3.4,1.9-3.5,8.7c0,6.2,0.2,6.9,2.1,7.3
		C134.3,303.6,153.2,302.8,160.5,300.1z"/>
	<path id="path5247" class="st3" d="M254.9,289.4c0.7-1.5,1.9-8.4,2.7-15.2c1.8-16.1,4.7-31.4,7.9-41.5c3-9.7,3-10.1,0.5-15
		c-1.1-2.2-2-4.5-2-5.2c0-1.9-0.8-1.6-4.2,1.2c-1.6,1.4-5,3-7.4,3.6c-4.2,1.1-4.5,1.4-5.9,6.2c-4,13.4-5.7,25.2-5.8,39.6
		c-0.1,21.2,2.7,29,10.4,29C252.9,292.2,254,291.4,254.9,289.4z"/>
	<path id="path5245" class="st3" d="M131,271.7c-0.4-1.9-3.4-8.7-6.6-15.1c-5.1-10.3-6.3-12-10.2-14.3c-11-6.5-32.5-21-40.2-27.1
		c-36.1-28.8-51.9-63.7-42.6-94.2c4.6-15.2,22-30.1,39.8-34.2c3.5-0.8,9.8-2.2,13.9-3c10.1-2.1,17.5-6.6,20.6-12.4
		c5.6-10.8,0.5-25.1-11.2-31.4c-3.4-1.8-5.6-2.2-15-2.1c-9.4,0-12.1,0.4-18.3,2.7c-11.7,4.2-20.8,10.3-30.8,20.2
		C4.5,86.5-1.9,123.7,12.9,163.2c2.4,6.3,12.3,22.9,18.4,30.9c11.9,15.4,38.2,37.2,82.3,67.9c7.2,5,13.9,10,14.9,11.1
		C131.1,276.1,131.9,275.6,131,271.7z"/>
	<path id="path5243" class="st3" d="M333.4,223.7c21.2-36,30.9-57,36.2-78c3.4-13.4,4.4-37.5,1.9-47.9c-4-16.9-11.6-30.8-23-42.2
		c-8.9-8.8-16.6-13.5-30.1-18c-15.1-5.1-34.2-3.1-41.1,4.4c-8.4,9-6.5,24.5,3.9,32.4c4.9,3.7,8.1,5.4,24.6,12.8
		c19.1,8.6,29.4,17.2,35.2,29.4c3.2,6.8,3.3,7.3,3.3,20c-0.1,19-3.3,30.2-20.4,70c-3.8,8.8-8.2,20.1-9.9,25
		c-3.4,10.1-8.2,32.4-8.2,37.6c0,3,0.7,2.1,5.8-7.6C315,255.6,324.7,238.5,333.4,223.7z"/>
	<path id="path5241" class="st3" d="M234.8,254.3c3.3-3.1,4.5-6.5,8.6-25.8c2.1-9.9,2.4-12.7,1.5-15.3c-0.6-1.8-1.4-3.1-1.8-2.9
		c-11.4,5.3-11.2,5.1-12.7,10.4c-2.7,9.2-4.6,33.9-2.8,35.7C229.1,257.9,231.9,257,234.8,254.3z"/>
	<path id="path5239" class="st3" d="M120.4,229.4c0.9-1.7,1.6-3.7,1.6-4.5c0-2-13.2-12.3-16.8-13.1c-1.7-0.4-5.7-2.4-9-4.5l-6-3.8
		l-1.1,4.4c-1.1,4.5-4.1,7.5-7.4,7.5c-4.9,0,3,6.2,23.8,18.7l12,7.2l0.6-4.3C118.5,234.4,119.5,231.1,120.4,229.4z"/>
	<path id="path5237" class="st3" d="M305.7,220.2c7.3-3.3,12.8-10.1,20.1-25c6.2-12.4,14.1-33.6,14.1-37.4c0-1.2-1-0.9-4.7,1.4
		c-8.2,5.2-13.7,4.8-19.6-1.6l-2.4-2.5l-2.6,3.9c-1.4,2.1-3.9,4.4-5.5,5.1c-2.8,1.2-3,1.6-3.5,9c-0.3,4.3-2,13.9-3.6,21.4
		c-3.6,16.4-3.9,22.9-1,25.7C299.4,222.6,300.4,222.6,305.7,220.2z"/>
	<path id="path5235" class="st3" d="M129.5,219c3.1-1.4,4-4.4,3.1-10.5c-1.1-7.2-1.4-7.7-3.6-5.8c-2,1.8-6.1,2.3-9.6,1.1
		c-1.9-0.6-2.2-0.4-2.2,1.3c0,1.1-0.9,3-2.1,4.1c-2,2-2,2.2-0.4,4.6c1.5,2.3,8.5,6.3,11.2,6.3C126.3,220.1,128,219.6,129.5,219z"/>
	<path id="path5233" class="st3" d="M279.7,218.2c9.1-5.5,19.3-29.8,19.3-45.7c0-6.2,0-6.3-2.8-6.3c-1.5,0-4.2-0.9-6.1-2l-3.3-2
		l-3.3,2.8c-1.8,1.5-4.7,3.6-6.4,4.5c-2.7,1.4-3.1,2.3-3.1,5.5c0,5-2.4,18.7-5,27.9c-2.5,9.3-2.6,12.8,0,15.3
		C271.5,220.7,275.6,220.7,279.7,218.2z"/>
	<path id="path5231" class="st3" d="M257.9,212.5c7.4-4.3,13.8-23.4,12.8-38c-0.3-4.1-0.7-4.9-2.4-5.2c-1.2-0.2-3.3-1.6-4.8-3.1
		l-2.7-2.8l-5.2,5.2l-5.2,5.2l-1.4,14.9c-1.8,19.2-1.8,23.2,0,24.4C251.3,214.6,254.9,214.3,257.9,212.5z"/>
	<path id="path5229" class="st3" d="M81.7,212.1c3.8-1.3,5.7-5.4,4.8-10.7c-0.4-2.3-3.8-8.8-8.6-16.3c-4.4-6.8-8.2-13.2-8.5-14.2
		s-2.8-2.9-5.4-4.2c-2.7-1.4-5.2-3-5.5-3.6c-0.4-0.7-1.7-0.1-3.6,1.7c-2.4,2.3-3.9,2.8-7.6,2.8c-2.6,0-5.8-0.4-7.1-0.9
		c-2.2-0.8-2.3-0.7-1.7,2c2.4,9.8,25.3,37.5,34.9,42.3C78.2,213.5,77.8,213.5,81.7,212.1z"/>
	<path id="path5227" class="st3" d="M241.3,208.7c3.1-2.9,4.3-7.2,5.6-21c1.3-14.3,1.4-13.5-1.5-13.5c-1.4,0-4-0.6-5.9-1.4l-3.3-1.4
		l-0.6,8.6c-0.4,4.8-1.4,13.5-2.2,19.4c-0.9,5.9-1.3,11.4-1,12.2C233.1,213.5,237.8,212,241.3,208.7z"/>
	<path id="path5225" class="st3" d="M112.8,207c2.2-2.2,1.3-7.7-2.7-15.6c-2.1-4.3-4.7-9.9-5.7-12.6s-2.3-5-2.9-5.2
		s-3.2-0.9-5.9-1.5c-4.7-1.2-9.3-4.6-11.4-8.4c-1-1.8-1.3-1.8-4.9,1.2c-2.1,1.7-4.4,3.2-5.1,3.2c-2.5,0-2.3,2.1,0.8,8.2
		c7.5,15,18.3,27.8,25.5,30.3C105.4,208.4,111.2,208.5,112.8,207z"/>
	<path id="path5223" class="st3" d="M128.4,199.2c1.2-1.4,2-4.7,2.6-11.2c0.5-5.1,1.2-10.9,1.6-12.7c0.7-3.1,0.6-3.3-1.2-2.6
		c-2.9,1.3-9.1,1.8-12.1,1c-1.5-0.4-4.1-2.2-5.8-4l-3.1-3.3l-2.7,3.3L105,173l1.9,6.1c2.4,7.7,9.6,19.9,12.4,21
		C123,201.6,126.6,201.3,128.4,199.2z"/>
	<g id="g4205">
		<path id="path4207" class="st3" d="M341.5,126c-3.4-15.9-11.1-23.7-36.5-36.5c-8.6-4.3-15.1-6.5-15-5.1c0,0.1,0.7,2.5,1.5,5.2
			c3.2,10.5,0.9,21.2-6,28.1c-10.6,10.6-27.8,9.1-37.2-3.1c-3.7-4.9-4.2-12.7-1.8-31.6c3.6-29.2-0.6-50.3-12.7-63.4
			C220.2,4.8,191.3,0,169.2,8.9c-5.3,2.1-8.2,4.3-14.7,10.7c-4.5,4.4-8.8,9.2-9.7,10.6c-1.2,1.9-1.7,2.1-2,1
			c-0.3-0.8-1.4-4.8-2.7-8.8c-1.2-4-2.5-7.2-2.9-7.2s-3,2.8-5.8,6.2l-5.1,6.2l3.1,6.5c2.7,5.8,3.1,7.5,3.1,15.5
			c0,5-0.4,14.4-0.9,21.1c-1.1,14.6,0,20.5,4.9,26.1c9.5,11,32.1,12.7,41.3,3.1c7.4-7.8,8-14.3,2.8-29.2c-4-11.4-4.3-15.7-1.5-20.2
			c2.8-4.6,7.3-6.6,13.5-6.1c6.5,0.5,10.6,3.4,13.5,9.3c3.3,6.9,3.7,14,1,22.7c-2.9,9.4-4.9,13.2-10.3,19.8l-4.4,5.3l1.9,8.7
			c2.3,10.2,1.9,25.9-0.9,40.7c-1,5.4-1.8,14.2-1.8,22.2c-0.1,12.6,0,13.3,2.3,15.8l2.4,2.6h-4.9c-6.6,0-12.8-3.2-17.4-8.9
			c-2-2.6-8.6-15.4-14.7-28.4c-9.6-20.7-11.2-23.7-13-23.3c-15.1,3.5-17.5,3.8-24.2,3.3c-3.9-0.3-10-1.5-13.5-2.7
			c-12-4-18.7-10.5-21.3-20.6c-1.4-5.5-1.4-6.9-0.1-13c0.8-3.8,1.8-7.7,2.2-8.7c0.7-1.8,0.4-1.9-5.7-1.2c-10.4,1.2-20,3.6-26.3,6.8
			c-7,3.5-15.8,11.5-19.3,17.6c-6.2,10.6-8.9,28.6-5.9,40.2c2,7.6,2.8,8.8,8.1,11.2c5.2,2.3,8.7,2.3,11.6,0
			c2.3-1.8,2.4-2.3,2.1-13.8c-0.2-8.3,0.1-13.2,1.2-16.3c1.4-4.5,1.4-4.4,1.5,7.9c0.1,10.5,0.4,13.1,2.2,16.8
			c2.4,5.1,6.1,7.3,11.9,7.3c3.4,0,4.8-0.6,7.5-3.4c3-3,3.4-4.1,3.4-8.4c0-2.7,0.3-6.5,0.7-8.3c0.6-2.8,0.9-1.5,1.9,6.8
			c1.3,10.7,2.7,14,7.2,16.9c3.6,2.4,10.6,2.3,13.3-0.2c2.7-2.4,5.8-9,6-12.9c0.1-2.5,0.3-2.3,1.1,1.5c2.3,11,2.8,12.1,6.4,13.6
			c7.1,3,13.1,0.6,17.6-7c1.7-2.8,2.7-4.2,2.4-3.1c-3.7,10.9-4.8,17.7-4.9,30c-0.1,10.2,0.3,14.2,1.8,18.5
			c4.9,14.2,11.3,24.3,19.9,31.4l4.5,3.7l4.7-3c12.3-7.8,25.4-6.1,35.8,4.8c2.4,2.5,5,6.1,5.6,8c1.9,5.8,1.2,5.8-1.9,0.1
			c-1.6-3-4.6-6.9-6.5-8.6c-10.9-9.6-32.2-6.4-40,6.1c-2.5,4.1-3.1,6-3.4,12.6c-0.4,9.9,2,15.6,11.1,26c3.5,4.1,7.6,9.4,9,11.9
			c3.9,6.8,6.8,17.3,6.8,25c0,6.7,0,6.8,3,7.5c1.6,0.4,4.6,1.8,6.6,3.1s3.7,2.3,3.9,2.2c0.1-0.2,1.4-2.4,2.9-4.9s5-6.6,7.9-9
			c5.1-4.2,5.4-4.1,1.7,1.1c-1.7,2.4-1.7,2.7,0.3,8.5c2.9,8.4,4.1,26.9,2.9,43c-1.5,20.1-1.4,24.8,1.1,27.9c2.5,3.2,4.8,3.3,8.3,0.6
			c6.4-5.1,10.6-17.6,10.6-32.1c0-6.9-3.7-27.9-7-38.8c-1.3-4.4-1.2-7.3,0.1-4c2.4,5.9,9.9,34.7,12.9,49c4,19.4,6.1,24.6,10.1,25.4
			c11.7,2.3,17.4-14.8,11.8-35.6c-1.6-5.8-4-10.8-9.2-19.1c-15.7-25-26.7-44-23.9-41.2c0.6,0.5,9.7,14.3,20.3,30.5
			c20.5,31.4,33.8,50.1,37.2,52.5c1.2,0.8,3.6,1.5,5.4,1.5c7.6,0,9.5-12.6,3.8-24c-3.3-6.4-8.8-13.9-20-27
			c-15.1-17.6-29.9-37.4-34.6-46.5c-6.4-12.1-11.5-27.9-12.8-39.2c-1.2-10.8-0.2-22.9,3.5-39.8c4.2-19.8,5.8-33.8,5.2-47.5
			c-0.5-12.2-0.5-12.4,1-8.2c5,14.1,26.2,8.4,26.3-7c0-5.8,1.9-5.5,2.6,0.4c0.5,3.9,1.4,6,3.6,8.2c2.6,2.6,3.4,2.8,8.1,2.4
			c4.4-0.4,5.6-1,8.4-4.2c2.5-2.9,3.4-5,3.9-9.4c1-8.8,1.8-9.3,2.4-1.6c0.8,10.1,4.1,13.3,11.7,11.2c8.9-2.4,12.2-8.9,13.1-26.1
			c0.8-14.4,1.9-11.9,2.1,4.5c0.1,5.9,0.6,11.8,1.2,13.1c2.2,4.8,8.7,6.9,14.6,4.6C341.4,155.4,345.1,142.9,341.5,126z"/>
	</g>
	<path id="path6108" class="st2" d="M143.9,90.3c-2.1-1.7-2.4-2.8-2.5-11.1c-0.2-10.2,0.8-11.3,4.1-4.3c1.4,3.1,2.6,4.2,4.2,4.2
		c4.2,0,6.6,4.7,4.7,9.4c-0.9,2.3-1.9,2-3.2-0.9c-1.7-3.8-3.6-3.2-2.9,1C149,92.7,147.5,93.2,143.9,90.3z"/>
	<path id="path5269" class="st4" d="M143.9,90.3c-2.1-1.7-2.4-2.8-2.5-11.1c-0.2-10.2,0.8-11.3,4.1-4.3c1.4,3.1,2.6,4.2,4.2,4.2
		c4.2,0,6.6,4.7,4.7,9.4c-0.9,2.3-1.9,2-3.2-0.9c-1.7-3.8-3.6-3.2-2.9,1C149,92.7,147.5,93.2,143.9,90.3z"/>
	<path id="path4211" class="st5" d="M194,201.1c1.9,18.8-5.1,20.6-7.9,24.4c-2.8,3.9,4.2,7.7,10.2,3.3
		C202.3,224.4,194,201.1,194,201.1L194,201.1z M180.5,197.4c0,0-3.2,6.1-5.1,12.5c-1.9,6.5-9.7,0.7-9.4,6c0.4,5.3,8,8.5,11.7,5.2
		C181.5,217.9,180.5,197.4,180.5,197.4L180.5,197.4z M198.9,187.7c0,0,6.7-16.8,11.4-19s11.5,1.1,12.9,8.1s-7.9,9-9.3,7.2
		c-1.4-1.8,3.7-7.1-3.6-7.2c-7.3-0.2-11.7,11.4-11.7,11.4"/>
</g>
</svg>
